<svg xmlns="http://www.w3.org/2000/svg" width="16.778" height="16" viewBox="0 0 16.778 16"><defs><style>.a{fill:#fff;}.b{fill:#d5d5d5;}</style></defs><g transform="translate(0 -11.877)"><path class="a" d="M16.382,17.657l-5.435-.5L8.789,12.14a.435.435,0,0,0-.8,0L5.83,17.153l-5.435.5a.435.435,0,0,0-.247.761l4.1,3.6-1.2,5.324a.435.435,0,0,0,.647.47l4.693-2.787,4.693,2.787a.436.436,0,0,0,.647-.47l-1.2-5.324,4.1-3.6A.435.435,0,0,0,16.382,17.657Z" transform="translate(0 0)"/><path class="b" d="M8.789,12.14a.435.435,0,0,0-.8,0L5.83,17.153l-5.435.5a.435.435,0,0,0-.247.761l4.1,3.6-1.2,5.324a.435.435,0,0,0,.647.47l1.047-.622A19.208,19.208,0,0,1,9.856,14.619Z" transform="translate(0 0)"/></g></svg>