<svg xmlns="http://www.w3.org/2000/svg" width="22" height="16" viewBox="0 0 22 16">
  <g id="crown_1_" data-name="crown (1)" transform="translate(0 -64.556)">
    <path id="Path_1183" data-name="Path 1183" d="M60.516,66.96a.276.276,0,0,1,.09.361,16.349,16.349,0,0,1-2.218,3.219,10.63,10.63,0,0,0,1.585,1.84,1.5,1.5,0,0,0,1.866.094,14.866,14.866,0,0,0,2.333-2.084,16.4,16.4,0,0,1-2.083-3.082.314.314,0,0,1,.077-.4,1.333,1.333,0,1,0-1.652.05Z" transform="translate(-55.88 -0.001)" fill="#4a4291"/>
    <path id="Path_1184" data-name="Path 1184" d="M61.847,69.556c.285-.378.568-.784.847-1.208-.208-.341-.41-.692-.6-1.041a.313.313,0,0,1,.078-.4,1.333,1.333,0,1,0-1.652.049.276.276,0,0,1,.09.361A16.351,16.351,0,0,1,58.39,70.54a10.63,10.63,0,0,0,1.585,1.84,1.5,1.5,0,0,0,1.866.094l.2-.146-.109-.125A2.1,2.1,0,0,1,61.847,69.556Z" transform="translate(-55.881 0)" fill="#4a4291"/>
    <path id="Path_1185" data-name="Path 1185" d="M320.617,66.851a.459.459,0,0,1,.1.566,16.5,16.5,0,0,1-2.014,2.966,14.86,14.86,0,0,0,2.345,2.1,1.5,1.5,0,0,0,1.866-.094,10.606,10.606,0,0,0,1.575-1.825,16.4,16.4,0,0,1-2.2-3.169.353.353,0,0,1,.094-.455,1.32,1.32,0,0,0-.745-2.372,1.347,1.347,0,0,0-1.45,1.323A1.3,1.3,0,0,0,320.617,66.851Z" transform="translate(-305.006 -0.007)" fill="#4a4291"/>
    <path id="Path_1186" data-name="Path 1186" d="M322.455,69.224c.162-.237.323-.486.48-.74-.223-.356-.439-.724-.645-1.091a.356.356,0,0,1,.1-.46,1.32,1.32,0,0,0-.752-2.367,1.347,1.347,0,0,0-1.45,1.323,1.3,1.3,0,0,0,.429.965.453.453,0,0,1,.1.558,16.526,16.526,0,0,1-2.017,2.972,14.861,14.861,0,0,0,2.345,2.1,1.5,1.5,0,0,0,1.866-.094c.129-.116.256-.237.379-.363-.168-.135-.346-.283-.529-.444A1.782,1.782,0,0,1,322.455,69.224Z" transform="translate(-305.006 -0.008)" fill="#4a4291"/>
    <path id="Path_1187" data-name="Path 1187" d="M.205,67.46C.785,68.6.5,69.542.573,73.524V79.5H21.5V69.166a3.759,3.759,0,0,1,.374-1.721c.354-.767.076-2.116-.658-2.116-.628,0-.942,1-.774,1.767a2.181,2.181,0,0,1,.126,1.534,13.449,13.449,0,0,1-2.626,3.54,1.5,1.5,0,0,1-1.866.094,14.789,14.789,0,0,1-4.314-4.857.363.363,0,0,1,.112-.467,1.321,1.321,0,0,0-.834-2.379h-.007a1.321,1.321,0,0,0-.824,2.387.347.347,0,0,1,.107.448A14.788,14.788,0,0,1,6,72.265a1.5,1.5,0,0,1-1.866-.094,13.449,13.449,0,0,1-2.626-3.54,1.737,1.737,0,0,1,.038-1.246c.353-.86-.021-2.055-.685-2.055C.124,65.329-.179,66.7.205,67.46Z" transform="translate(-0.036 -0.006)" fill="#7368d8"/>
    <path id="Path_1188" data-name="Path 1188" d="M2.806,88.287a17.04,17.04,0,0,1-1.3-2.063,1.737,1.737,0,0,1,.038-1.246c.353-.86-.021-2.055-.685-2.055C.124,82.923-.179,84.3.2,85.054c.579,1.139.295,2.082.368,6.064v5.977H2.808V91.118C2.786,89.934,2.8,89.019,2.806,88.287Z" transform="translate(-0.036 -17.6)" fill="#7368d8"/>
    <path id="Path_1191" data-name="Path 1191" d="M21.4,416.912H.6a.639.639,0,0,0,0,1.276H21.4a.639.639,0,0,0,0-1.276Z" transform="translate(0 -337.632)" fill="#42ddb3"/>
    <path id="Path_1192" data-name="Path 1192" d="M2.213,417.55a.619.619,0,0,1,.6-.638H.6a.639.639,0,0,0,0,1.276H2.811A.619.619,0,0,1,2.213,417.55Z" transform="translate(0 -337.632)" fill="#42ddb3"/>
  </g>
</svg>
