<svg xmlns="http://www.w3.org/2000/svg" width="22" height="22" viewBox="0 0 22 22"><defs><style>.a{fill:#4a4291;}.b{fill:#41ddb2;}.c{fill:#7953e2;}</style></defs><g transform="translate(0 -0.004)"><path class="a" d="M38.353,11.921a2.75,2.75,0,1,1,0-5.5l1.833-1.426V2.754A2.753,2.753,0,0,0,37.436,0H27.582a.916.916,0,0,0-.856,1.243l6.646,17.417a.915.915,0,0,0,.856.59h3.208a2.753,2.753,0,0,0,2.75-2.75V13.393Zm0,0" transform="translate(-25.519)"/><path class="b" d="M282.267,113.463a.717.717,0,0,0,.566-.633v-2.055H286.5c.506,0,.917-.307.917-.685s-.411-.685-.917-.685h-3.667v-2.055a.717.717,0,0,0-.566-.633,1.153,1.153,0,0,0-1,.149l-3.667,2.74a.571.571,0,0,0,0,.968l3.667,2.74A1.153,1.153,0,0,0,282.267,113.463Zm0,0" transform="translate(-265.415 -100.607)"/><path class="c" d="M7.926,1.994,2.417.158A1.846,1.846,0,0,0,0,1.9V18.4a1.843,1.843,0,0,0,1.241,1.74l5.507,1.836a1.939,1.939,0,0,0,.585.091,1.835,1.835,0,0,0,1.833-1.833V3.734A1.843,1.843,0,0,0,7.926,1.994Zm0,0" transform="translate(0 -0.063)"/></g></svg>