<svg xmlns="http://www.w3.org/2000/svg" width="22" height="26.466" viewBox="0 0 22 26.466"><defs><style>.a{fill:#42ddb3;}.b{fill:#7953e2;}.c{fill:#4a4291;}</style></defs><path class="a" d="M93.377,12.691a6.14,6.14,0,0,0,4.487-1.859,6.14,6.14,0,0,0,1.859-4.487,6.141,6.141,0,0,0-1.859-4.487,6.344,6.344,0,0,0-8.973,0,6.14,6.14,0,0,0-1.859,4.486,6.14,6.14,0,0,0,1.859,4.487A6.141,6.141,0,0,0,93.377,12.691Zm0,0" transform="translate(-82.553)"/><path class="b" d="M21.927,254.849a15.675,15.675,0,0,0-.213-1.665,13.116,13.116,0,0,0-.409-1.674,8.267,8.267,0,0,0-.688-1.561,5.891,5.891,0,0,0-1.038-1.352,4.575,4.575,0,0,0-1.49-.936,5.151,5.151,0,0,0-1.9-.344,1.931,1.931,0,0,0-1.031.437c-.309.2-.671.435-1.074.693a6.156,6.156,0,0,1-1.39.612,5.4,5.4,0,0,1-3.4,0,6.142,6.142,0,0,1-1.389-.612c-.4-.255-.762-.489-1.075-.693a1.929,1.929,0,0,0-1.031-.437,5.144,5.144,0,0,0-1.9.345A4.571,4.571,0,0,0,2.4,248.6a5.891,5.891,0,0,0-1.037,1.352,8.283,8.283,0,0,0-.688,1.561,13.147,13.147,0,0,0-.409,1.674,15.618,15.618,0,0,0-.213,1.665c-.035.5-.053,1.027-.053,1.556a4.375,4.375,0,0,0,1.3,3.31,4.677,4.677,0,0,0,3.348,1.221H17.333a4.676,4.676,0,0,0,3.348-1.221,4.373,4.373,0,0,0,1.3-3.31C21.98,255.874,21.962,255.351,21.927,254.849Zm0,0" transform="translate(0 -234.59)"/><path class="c" d="M161.167,257.994a15.671,15.671,0,0,0-.213-1.665,13.117,13.117,0,0,0-.409-1.674,8.268,8.268,0,0,0-.688-1.561,5.891,5.891,0,0,0-1.038-1.352,4.575,4.575,0,0,0-1.49-.936c-.578-.229-8.76,14.659-8.76,13.283,0-.212,5.386.338,9.056,0a3.07,3.07,0,0,0,2.051-1.034,4.613,4.613,0,0,0,1.279-1.858A8.02,8.02,0,0,0,161.167,257.994Zm0,0" transform="translate(-139.24 -237.735)"/></svg>