<svg xmlns="http://www.w3.org/2000/svg" width="22" height="26" viewBox="0 0 22 26">
  <g id="Group_707" data-name="Group 707" transform="translate(-38 -502)">
    <g id="weapons_1_" data-name="weapons (1)" transform="translate(-2.167 502)">
      <path id="Path_94" data-name="Path 94" d="M61.622,3.092,51.387.032a.767.767,0,0,0-.439,0L40.712,3.092a.762.762,0,0,0-.545.73V15.04a7.231,7.231,0,0,0,1.762,4.44A18.188,18.188,0,0,0,45.6,22.868a32.976,32.976,0,0,0,5.254,3.065.767.767,0,0,0,.625,0,32.976,32.976,0,0,0,5.254-3.065A18.191,18.191,0,0,0,60.4,19.479a7.231,7.231,0,0,0,1.762-4.44V3.821A.762.762,0,0,0,61.622,3.092Z" fill="#4a4291"/>
      <path id="Path_95" data-name="Path 95" d="M266.455,3.092,256.22.032A.767.767,0,0,0,256,0V26h0a.766.766,0,0,0,.312-.067,32.976,32.976,0,0,0,5.254-3.065,18.192,18.192,0,0,0,3.672-3.389A7.231,7.231,0,0,0,267,15.04V3.821A.762.762,0,0,0,266.455,3.092Z" transform="translate(-204.833 0)" fill="#7953e2"/>
    </g>
    <g id="weapons_1_2" data-name="weapons (1)" transform="translate(4.833 510)">
      <path id="Path_94-2" data-name="Path 94" d="M48.419,1.189,44.482.012a.3.3,0,0,0-.169,0L40.377,1.189a.293.293,0,0,0-.21.281V5.784a2.781,2.781,0,0,0,.678,1.708,7,7,0,0,0,1.412,1.3,12.683,12.683,0,0,0,2.021,1.179.295.295,0,0,0,.24,0A12.683,12.683,0,0,0,46.539,8.8a7,7,0,0,0,1.412-1.3,2.781,2.781,0,0,0,.678-1.708V1.47A.293.293,0,0,0,48.419,1.189Z" transform="translate(0 0)" fill="#42ddb3"/>
      <path id="Path_95-2" data-name="Path 95" d="M260.021,1.189,256.085.012A.3.3,0,0,0,256,0V10h0a.294.294,0,0,0,.12-.026A12.682,12.682,0,0,0,258.141,8.8a7,7,0,0,0,1.412-1.3,2.781,2.781,0,0,0,.678-1.708V1.47A.293.293,0,0,0,260.021,1.189Z" transform="translate(-211.602 0)" fill="#42ddb3"/>
    </g>
  </g>
</svg>
