<svg xmlns="http://www.w3.org/2000/svg" width="50" height="44" viewBox="0 0 50 44"><defs><style>.a{fill:#9778ff;}</style></defs><g transform="translate(-32.07 -64)"><path class="a" d="M142.352,248c-7.721,0-14.031,7.5-14.283,16.838a38.126,38.126,0,0,0,5.325,1.97,10.254,10.254,0,0,1,2.9-12.079,9.627,9.627,0,0,1,12.12,0,10.254,10.254,0,0,1,2.9,12.079,37.919,37.919,0,0,0,5.325-1.97C156.383,255.5,150.073,248,142.352,248Z" transform="translate(-85.282 -162.917)"/><path class="a" d="M299.693,192a11.815,11.815,0,0,0-2.976.382,8.262,8.262,0,0,1-3.6,4.85c5.775,1.846,10.28,7.455,11.562,14.491a38.583,38.583,0,0,0,9.293-2.885C313.724,199.5,307.413,192,299.693,192Z" transform="translate(-231.905 -113.333)"/><path class="a" d="M192.038,304a8.253,8.253,0,1,0,8.038,8.25A8.146,8.146,0,0,0,192.038,304Zm3.572,9.167h-2.679v2.75a.893.893,0,1,1-1.786,0v-2.75h-2.679a.917.917,0,0,1,0-1.833h2.679v-2.75a.893.893,0,1,1,1.786,0v2.75h2.679a.917.917,0,0,1,0,1.833Z" transform="translate(-134.968 -212.5)"/><ellipse class="a" cx="6.252" cy="6.417" rx="6.252" ry="6.417" transform="translate(50.818 70.417)"/><path class="a" d="M299.67,76.2a6.139,6.139,0,0,0,7.3-1.432,6.549,6.549,0,0,0,.807-7.586,6.19,6.19,0,0,0-6.83-3.015,6.372,6.372,0,0,0-4.811,5.818A8.3,8.3,0,0,1,299.67,76.2Z" transform="translate(-234.588 0)"/><path class="a" d="M113.016,76.273a8.3,8.3,0,0,1,3.531-6.215,6.367,6.367,0,0,0-4.808-5.81,6.185,6.185,0,0,0-6.822,3.013,6.543,6.543,0,0,0,.8,7.578A6.134,6.134,0,0,0,113.016,76.273Z" transform="translate(-63.958 -0.07)"/><path class="a" d="M52.926,197.233a8.261,8.261,0,0,1-3.6-4.85A11.816,11.816,0,0,0,46.352,192c-7.721,0-14.031,7.5-14.282,16.838a38.583,38.583,0,0,0,9.294,2.886C42.646,204.689,47.151,199.079,52.926,197.233Z" transform="translate(0 -113.333)"/></g></svg>