<svg xmlns="http://www.w3.org/2000/svg" width="80" height="80" viewBox="0 0 80 80">
  <g id="Group_1901" data-name="Group 1901" transform="translate(-908 -173)">
    <g id="Group_1889" data-name="Group 1889" transform="translate(80 -38)">
      <g id="Group_1887" data-name="Group 1887" transform="translate(20 38)">
        <rect id="Rectangle_2193" data-name="Rectangle 2193" width="80" height="80" rx="25" transform="translate(808 173)" fill="#733f4c"/>
      </g>
      <g id="Group_1888" data-name="Group 1888" transform="translate(20 38)">
        <g id="Rectangle_2193-2" data-name="Rectangle 2193" transform="translate(808 173)" fill="none" stroke="#f87c68" stroke-width="3">
          <rect width="80" height="80" rx="25" stroke="none"/>
          <rect x="1.5" y="1.5" width="77" height="77" rx="23.5" fill="none"/>
        </g>
      </g>
    </g>
    <g id="basketball-court" transform="translate(926 191)">
      <circle id="Ellipse_1519" data-name="Ellipse 1519" cx="22.5" cy="22.5" r="22.5" fill="#f87c68"/>
      <g id="Group_1825" data-name="Group 1825" transform="translate(0 0)">
        <path id="Path_1280" data-name="Path 1280" d="M7.89,22.5A22.506,22.506,0,0,1,26.445.345,22.5,22.5,0,1,0,22.5,45a22.633,22.633,0,0,0,3.945-.345A22.506,22.506,0,0,1,7.89,22.5Z" transform="translate(0 0)" fill="#ec625e"/>
        <path id="Path_1281" data-name="Path 1281" d="M36.279,16.507c3.556-.641,5.273-2.527,6.088-4.391q-.421-.79-.9-1.542c-.66,2.547-2.514,4.1-5.517,4.613a27.919,27.919,0,0,0-2.538-6.193A28.314,28.314,0,0,0,26.075.468,22.6,22.6,0,0,0,23.354.2,26.67,26.67,0,0,1,34.589,15.343c-4.042.247-6.753-1.6-9.858-3.724a41.679,41.679,0,0,0-4.651-2.877A39.429,39.429,0,0,0,8.859,4.791q-.727.555-1.407,1.166a36.48,36.48,0,0,1,12.012,4,40.632,40.632,0,0,1,4.5,2.788c2.989,2.042,5.833,3.984,9.9,3.984.346,0,.7-.016,1.067-.045a26.9,26.9,0,0,1,.666,5.325H.011C0,22.231,0,22.457,0,22.684s0,.453.011.679H35.6a26.9,26.9,0,0,1-.666,5.325c-4.647-.373-7.722,1.723-10.966,3.939a40.632,40.632,0,0,1-4.5,2.788,36.483,36.483,0,0,1-12.012,4q.679.611,1.407,1.166a39.428,39.428,0,0,0,11.222-3.952,41.7,41.7,0,0,0,4.65-2.877c3.1-2.121,5.816-3.971,9.858-3.724A26.67,26.67,0,0,1,23.354,45.166a22.616,22.616,0,0,0,2.72-.266,28.312,28.312,0,0,0,7.336-8.525,27.929,27.929,0,0,0,2.538-6.193c3,.516,4.856,2.066,5.516,4.613q.481-.751.9-1.543c-.812-1.856-2.526-3.749-6.088-4.391a28.21,28.21,0,0,0,.677-5.5h8.033c.007-.226.011-.452.011-.679s0-.453-.011-.679H36.956a28.2,28.2,0,0,0-.677-5.5Z" transform="translate(0 -0.184)" fill="#fff"/>
      </g>
    </g>
  </g>
</svg>
