<svg xmlns="http://www.w3.org/2000/svg" width="44" height="32" viewBox="0 0 44 32"><defs><style>.a{fill:#f9bb4b;}.b{fill:#f2aa36;}.c{fill:#f9c85d;}.d{fill:#f4a32c;}.e{fill:#ed9015;}</style></defs><path class="a" d="M62.644,69.364a.553.553,0,0,1,.181.723,32.7,32.7,0,0,1-4.436,6.438A21.26,21.26,0,0,0,61.56,80.2a2.989,2.989,0,0,0,3.733.189,29.733,29.733,0,0,0,4.667-4.168,32.809,32.809,0,0,1-4.166-6.163.628.628,0,0,1,.155-.8,2.666,2.666,0,1,0-3.3.1Z" transform="translate(-53.371 -64.557)"/><path class="b" d="M65.3,74.557c.57-.756,1.137-1.568,1.694-2.415-.416-.682-.821-1.384-1.205-2.083a.626.626,0,0,1,.156-.8,2.666,2.666,0,1,0-3.3.1.553.553,0,0,1,.181.723,32.7,32.7,0,0,1-4.436,6.438A21.261,21.261,0,0,0,61.561,80.2a2.989,2.989,0,0,0,3.733.189c.128-.092.263-.19.4-.292l-.217-.251A4.2,4.2,0,0,1,65.3,74.557Z" transform="translate(-53.372 -64.556)"/><path class="a" d="M322.533,69.139a.919.919,0,0,1,.195,1.133A33,33,0,0,1,318.7,76.2a29.72,29.72,0,0,0,4.691,4.194,2.99,2.99,0,0,0,3.733-.189,21.212,21.212,0,0,0,3.15-3.651,32.794,32.794,0,0,1-4.391-6.338.705.705,0,0,1,.188-.91,2.64,2.64,0,0,0-1.49-4.744,2.7,2.7,0,0,0-2.9,2.645A2.609,2.609,0,0,0,322.533,69.139Z" transform="translate(-291.312 -64.562)"/><path class="b" d="M326.211,73.885c.325-.474.646-.971.961-1.48-.445-.712-.878-1.447-1.289-2.183a.713.713,0,0,1,.2-.919,2.64,2.64,0,0,0-1.5-4.734,2.7,2.7,0,0,0-2.9,2.645,2.609,2.609,0,0,0,.857,1.929.906.906,0,0,1,.2,1.117,33.052,33.052,0,0,1-4.035,5.944,29.721,29.721,0,0,0,4.691,4.194,2.989,2.989,0,0,0,3.732-.189c.259-.231.511-.475.758-.727-.337-.27-.691-.566-1.058-.889A3.564,3.564,0,0,1,326.211,73.885Z" transform="translate(-291.312 -64.563)"/><path class="c" d="M.373,70.358c1.158,2.279.589,4.163.735,12.128V94.44H42.962V73.771a7.519,7.519,0,0,1,.748-3.442c.708-1.534.152-4.232-1.317-4.232-1.255,0-1.883,2-1.547,3.535A4.363,4.363,0,0,1,41.1,72.7a26.9,26.9,0,0,1-5.251,7.08,2.99,2.99,0,0,1-3.733.189,29.578,29.578,0,0,1-8.627-9.713.726.726,0,0,1,.223-.933,2.642,2.642,0,0,0-1.669-4.759h-.013a2.643,2.643,0,0,0-1.648,4.774.694.694,0,0,1,.215.9,29.575,29.575,0,0,1-8.639,9.736,2.99,2.99,0,0,1-3.733-.189A26.9,26.9,0,0,1,2.972,72.7a3.473,3.473,0,0,1,.075-2.492c.706-1.719-.042-4.11-1.371-4.11C.21,66.1-.4,68.841.373,70.358Z" transform="translate(-0.035 -64.561)"/><path class="a" d="M5.574,93.651a34.079,34.079,0,0,1-2.6-4.126,3.473,3.473,0,0,1,.075-2.492c.706-1.719-.042-4.11-1.371-4.11-1.466,0-2.073,2.745-1.3,4.262,1.158,2.279.589,4.163.735,12.128v11.954H5.579V99.313C5.535,96.945,5.555,95.115,5.574,93.651Z" transform="translate(-0.034 -81.388)"/><path class="d" d="M42.8,416.912H1.2a1.279,1.279,0,0,0,0,2.552H42.8a1.279,1.279,0,0,0,0-2.552Z" transform="translate(0 -387.464)"/><path class="e" d="M4.427,418.188a1.238,1.238,0,0,1,1.2-1.276H1.2a1.279,1.279,0,0,0,0,2.552H5.622A1.237,1.237,0,0,1,4.427,418.188Z" transform="translate(0 -387.464)"/></svg>