<svg xmlns="http://www.w3.org/2000/svg" width="33.919" height="40" viewBox="0 0 33.919 40"><defs><style>.a{fill:#ff7895;}</style></defs><g transform="translate(-2.429 -0.001)"><g transform="translate(2.429 0.001)"><path class="a" d="M35.474,36a9.361,9.361,0,0,0,.384-3.138c-.2-.663-1.971-4.711-3.023-7.3a8.658,8.658,0,0,1-.565-2.08c-.025-1.289,1.644-4.568,1.273-6.759s-4.257-5.059-3.734-5.511,5.407-.232,5.789-.756,1.047-1.134.6-1.925-4.783-2.872-5.009-3.1-.56-4.152-3.174-3.773c.82,5.248-.185,7.173-4.632,8.834-.635.644-.455,3.075-.169,4.161,1.046,5.82-7.213,3.244-9.822,3.283-2.672-.153-4.081-.47-6.523,1.162a3.074,3.074,0,0,1-4.082-.409c-1.644,2.61,2.909,2.48,2.661,3.2A7.869,7.869,0,0,0,5.37,26.6a3.138,3.138,0,0,1,.287,1.681C5.321,29.376,2.671,32,2.671,33.368s.192,4.7.192,4.7S2.661,40,3.064,40s2.59-.076,3.112-.076-.262-1.752-1.334-1.863c0-.416.245-4.521.245-4.521l3.152-3.829s.363,3.757.865,4.5,2.255,4.128,2.255,4.128-.11,1.418.22,1.418,2.15-.048,2.81-.048-.148-1.832-1.166-1.721c-.386-.611-1.252-4-1.509-4.744a21.163,21.163,0,0,1-.291-4.464c.033-1.118,1.141.825,6.34.791s6.887-.791,6.887-.791,1.132,8.793,1.211,9.43c.105.694-.113,1.444.242,1.444s2.463.015,3.072.015.118-2.03-1.3-2.028a37.892,37.892,0,0,1-.5-4.845l2.269-4.211a47.565,47.565,0,0,1,4,4.548c.5.944.262,3.488.262,3.488a4.364,4.364,0,0,0-.6.918,17.408,17.408,0,0,0,1.95,1.976c.99-.224,1.063-1.534.826-2.281A4.31,4.31,0,0,0,35.474,36Z" transform="translate(-2.429 -0.001)"/><path class="a" d="M18.631,6.661c2.256-1.216.662-3.793.186-3.495.259,1.016.117,2.625-1.371,2.525s-1.542-3.072.943-3.729,4.543,4.127-.407,5.737c3.241.239,4.933-1.253,4.595-5.171S14.064-.594,13.926,3.821,17.7,7.079,18.631,6.661Z" transform="translate(1.84 -0.001)"/></g></g></svg>