<svg xmlns="http://www.w3.org/2000/svg" width="80" height="80" viewBox="0 0 80 80">
  <g id="Group_1900" data-name="Group 1900" transform="translate(-808 -173)">
    <g id="Group_925" data-name="Group 925">
      <rect id="Rectangle_2193" data-name="Rectangle 2193" width="80" height="80" rx="25" transform="translate(808 173)" fill="#365886"/>
    </g>
    <g id="Group_1885" data-name="Group 1885">
      <g id="Rectangle_2193-2" data-name="Rectangle 2193" transform="translate(808 173)" fill="none" stroke="#60b8f8" stroke-width="3">
        <rect width="80" height="80" rx="25" stroke="none"/>
        <rect x="1.5" y="1.5" width="77" height="77" rx="23.5" fill="none"/>
      </g>
    </g>
    <g id="goat" transform="translate(826.57 190.999)">
      <g id="Group_867" data-name="Group 867" transform="translate(2.429 0.001)">
        <path id="Path_1235" data-name="Path 1235" d="M39.6,40.3s.71-2.6.432-3.53c-.223-.746-2.217-5.3-3.4-8.218A9.741,9.741,0,0,1,36,26.212c-.028-1.45,1.85-5.139,1.433-7.6s-4.79-5.692-4.2-6.2,6.083-.261,6.512-.85,1.178-1.276.675-2.166-5.381-3.231-5.635-3.485-.63-4.671-3.571-4.245c.923,5.9-.208,8.07-5.211,9.938-.714.725-.511,3.459-.19,4.681,1.176,6.548-8.114,3.65-11.05,3.694-3.006-.172-4.591-.528-7.338,1.307-2.024,1.349-3.536.43-4.592-.46-1.85,2.936,3.272,2.79,2.994,3.6-.824,1.621-.338,4.787-.089,5.3a3.53,3.53,0,0,1,.323,1.891C5.683,32.844,2.7,35.8,2.7,37.335s.216,5.289.216,5.289S2.689,44.8,3.143,44.8s2.913-.085,3.5-.085-.294-1.971-1.5-2.1c0-.468.276-5.086.276-5.086l3.546-4.308s.409,4.226.973,5.067,2.537,4.644,2.537,4.644-.124,1.595.248,1.595,2.419-.054,3.161-.054-.166-2.061-1.312-1.937c-.434-.688-1.409-4.5-1.7-5.337a23.808,23.808,0,0,1-.327-5.022c.037-1.257,1.283.928,7.132.89s7.748-.89,7.748-.89,1.273,9.892,1.362,10.609c.118.78-.127,1.625.272,1.625s2.771.017,3.456.017.132-2.284-1.466-2.281a42.628,42.628,0,0,1-.558-5.451l2.553-4.738a53.51,53.51,0,0,1,4.5,5.116c.558,1.062.294,3.925.294,3.925a4.909,4.909,0,0,0-.678,1.032,19.584,19.584,0,0,0,2.193,2.223c1.114-.252,1.2-1.726.93-2.566A4.849,4.849,0,0,0,39.6,40.3Z" transform="translate(-2.429 0.203)" fill="#60b8f8"/>
        <path id="Path_1236" data-name="Path 1236" d="M19.22,7.494c2.538-1.368.745-4.267.209-3.932C19.72,4.7,19.56,6.515,17.886,6.4s-1.735-3.456,1.061-4.2,5.111,4.643-.458,6.454c3.646.269,5.55-1.41,5.169-5.817S14.082-.668,13.926,4.3,18.169,7.964,19.22,7.494Z" transform="translate(3.81 -0.001)" fill="#60b8f8"/>
      </g>
    </g>
  </g>
</svg>
