<svg xmlns="http://www.w3.org/2000/svg" width="42.837" height="40.849" viewBox="0 0 42.837 40.849"><defs><style>.a{fill:#8c78fa;}.b{fill:#9684f8;}</style></defs><path class="a" d="M41.826,26.634,27.951,25.347l-5.512-12.8a1.112,1.112,0,0,0-2.042,0l-5.511,12.8L1.01,26.634a1.112,1.112,0,0,0-.631,1.942l10.469,9.2L7.784,51.366a1.112,1.112,0,0,0,1.652,1.2l11.981-7.114L33.4,52.567a1.112,1.112,0,0,0,1.652-1.2L31.988,37.773l10.469-9.2A1.112,1.112,0,0,0,41.826,26.634Z" transform="translate(0 -11.877)"/><path class="b" d="M22.439,12.549a1.112,1.112,0,0,0-2.042,0l-5.511,12.8L1.01,26.634a1.112,1.112,0,0,0-.631,1.942l10.469,9.2L7.784,51.366a1.112,1.112,0,0,0,1.652,1.2l2.674-1.588a49.038,49.038,0,0,1,13.054-32.1Z" transform="translate(0 -11.877)"/></svg>